<mxfile host="app.diagrams.net" modified="2022-07-29T12:19:20.444Z" agent="5.0 (Windows)" etag="1h32B_oQlKmGfM6GsNyL" version="20.1.1" type="github">
  <diagram id="9uEO-OhBOvV5sc5r3ADp" name="Page-1">
    <mxGraphModel dx="1422" dy="780" grid="1" gridSize="10" guides="1" tooltips="1" connect="1" arrows="1" fold="1" page="1" pageScale="1" pageWidth="827" pageHeight="1169" math="0" shadow="0">
      <root>
        <mxCell id="0" />
        <mxCell id="1" parent="0" />
        <mxCell id="O03qgihGsbq_CIoBmfs9-14" value="Proxmox" style="rounded=1;whiteSpace=wrap;html=1;horizontal=1;verticalAlign=top;arcSize=6;" vertex="1" parent="1">
          <mxGeometry x="180" y="270" width="630" height="390" as="geometry" />
        </mxCell>
        <mxCell id="O03qgihGsbq_CIoBmfs9-28" value="create Virtual Machine" style="edgeStyle=orthogonalEdgeStyle;rounded=0;orthogonalLoop=1;jettySize=auto;html=1;exitX=0;exitY=0.75;exitDx=0;exitDy=0;entryX=0;entryY=0.5;entryDx=0;entryDy=0;" edge="1" parent="1" source="O03qgihGsbq_CIoBmfs9-14" target="O03qgihGsbq_CIoBmfs9-24">
          <mxGeometry relative="1" as="geometry">
            <Array as="points">
              <mxPoint x="485" y="563" />
            </Array>
          </mxGeometry>
        </mxCell>
        <mxCell id="O03qgihGsbq_CIoBmfs9-15" value="Internet" style="rounded=1;whiteSpace=wrap;html=1;verticalAlign=top;" vertex="1" parent="1">
          <mxGeometry x="590" y="10" width="180" height="170" as="geometry" />
        </mxCell>
        <mxCell id="O03qgihGsbq_CIoBmfs9-13" value="ansible awx vm" style="rounded=0;whiteSpace=wrap;html=1;horizontal=1;verticalAlign=top;" vertex="1" parent="1">
          <mxGeometry x="440" y="330" width="170" height="100" as="geometry" />
        </mxCell>
        <mxCell id="O03qgihGsbq_CIoBmfs9-2" value="&lt;div&gt;ansible playbook&lt;br&gt;&lt;/div&gt;&lt;div&gt;github repositories:&lt;/div&gt;&lt;div&gt;/snooops/dbaas_X&lt;br&gt;&lt;/div&gt;" style="rounded=0;whiteSpace=wrap;html=1;" vertex="1" parent="1">
          <mxGeometry x="620" y="110" width="120" height="60" as="geometry" />
        </mxCell>
        <mxCell id="O03qgihGsbq_CIoBmfs9-5" value="Actor" style="shape=umlActor;verticalLabelPosition=bottom;verticalAlign=top;html=1;outlineConnect=0;" vertex="1" parent="1">
          <mxGeometry x="40" y="360" width="30" height="60" as="geometry" />
        </mxCell>
        <mxCell id="O03qgihGsbq_CIoBmfs9-7" value="inception vm" style="rounded=0;whiteSpace=wrap;html=1;horizontal=1;verticalAlign=top;" vertex="1" parent="1">
          <mxGeometry x="210" y="330" width="170" height="100" as="geometry" />
        </mxCell>
        <mxCell id="O03qgihGsbq_CIoBmfs9-11" style="edgeStyle=orthogonalEdgeStyle;rounded=0;orthogonalLoop=1;jettySize=auto;html=1;exitX=1;exitY=0.5;exitDx=0;exitDy=0;entryX=0;entryY=0.5;entryDx=0;entryDy=0;" edge="1" parent="1" source="O03qgihGsbq_CIoBmfs9-6" target="O03qgihGsbq_CIoBmfs9-1">
          <mxGeometry relative="1" as="geometry" />
        </mxCell>
        <mxCell id="O03qgihGsbq_CIoBmfs9-6" value="cli interface" style="rounded=0;whiteSpace=wrap;html=1;" vertex="1" parent="1">
          <mxGeometry x="235" y="360" width="120" height="60" as="geometry" />
        </mxCell>
        <mxCell id="O03qgihGsbq_CIoBmfs9-8" value="ssh" style="edgeStyle=orthogonalEdgeStyle;rounded=0;orthogonalLoop=1;jettySize=auto;html=1;entryX=0;entryY=0.5;entryDx=0;entryDy=0;" edge="1" parent="1" source="O03qgihGsbq_CIoBmfs9-5" target="O03qgihGsbq_CIoBmfs9-6">
          <mxGeometry relative="1" as="geometry" />
        </mxCell>
        <mxCell id="O03qgihGsbq_CIoBmfs9-17" style="edgeStyle=orthogonalEdgeStyle;rounded=0;orthogonalLoop=1;jettySize=auto;html=1;entryX=0;entryY=0.5;entryDx=0;entryDy=0;exitX=0.5;exitY=0;exitDx=0;exitDy=0;" edge="1" parent="1" source="O03qgihGsbq_CIoBmfs9-1" target="O03qgihGsbq_CIoBmfs9-16">
          <mxGeometry relative="1" as="geometry" />
        </mxCell>
        <mxCell id="O03qgihGsbq_CIoBmfs9-20" value="&lt;div&gt;sync&lt;/div&gt;&lt;div&gt;provisioned&lt;/div&gt;&lt;div&gt;information&lt;br&gt;&lt;/div&gt;" style="edgeStyle=orthogonalEdgeStyle;rounded=0;orthogonalLoop=1;jettySize=auto;html=1;exitX=1;exitY=0.5;exitDx=0;exitDy=0;entryX=0;entryY=0.5;entryDx=0;entryDy=0;entryPerimeter=0;" edge="1" parent="1" source="O03qgihGsbq_CIoBmfs9-1" target="O03qgihGsbq_CIoBmfs9-19">
          <mxGeometry relative="1" as="geometry" />
        </mxCell>
        <mxCell id="O03qgihGsbq_CIoBmfs9-23" value="REST API " style="edgeStyle=orthogonalEdgeStyle;rounded=0;orthogonalLoop=1;jettySize=auto;html=1;exitX=0.25;exitY=1;exitDx=0;exitDy=0;" edge="1" parent="1" source="O03qgihGsbq_CIoBmfs9-1" target="O03qgihGsbq_CIoBmfs9-18">
          <mxGeometry relative="1" as="geometry" />
        </mxCell>
        <mxCell id="O03qgihGsbq_CIoBmfs9-29" value="deploy postgreSQL" style="edgeStyle=orthogonalEdgeStyle;rounded=0;orthogonalLoop=1;jettySize=auto;html=1;exitX=0.75;exitY=1;exitDx=0;exitDy=0;entryX=0.5;entryY=0;entryDx=0;entryDy=0;" edge="1" parent="1" source="O03qgihGsbq_CIoBmfs9-1" target="O03qgihGsbq_CIoBmfs9-24">
          <mxGeometry relative="1" as="geometry" />
        </mxCell>
        <mxCell id="O03qgihGsbq_CIoBmfs9-1" value="ansible awx" style="rounded=0;whiteSpace=wrap;html=1;" vertex="1" parent="1">
          <mxGeometry x="465" y="360" width="120" height="60" as="geometry" />
        </mxCell>
        <mxCell id="O03qgihGsbq_CIoBmfs9-4" value="fetch ansible assets" style="edgeStyle=orthogonalEdgeStyle;rounded=0;orthogonalLoop=1;jettySize=auto;html=1;exitX=0.5;exitY=0;exitDx=0;exitDy=0;entryX=0;entryY=0.5;entryDx=0;entryDy=0;" edge="1" parent="1" source="O03qgihGsbq_CIoBmfs9-1" target="O03qgihGsbq_CIoBmfs9-2">
          <mxGeometry relative="1" as="geometry" />
        </mxCell>
        <mxCell id="O03qgihGsbq_CIoBmfs9-16" value="&lt;div&gt;ansible galaxy:&lt;/div&gt;&lt;div&gt;community collections&lt;br&gt;&lt;/div&gt;" style="rounded=0;whiteSpace=wrap;html=1;" vertex="1" parent="1">
          <mxGeometry x="620" y="40" width="120" height="60" as="geometry" />
        </mxCell>
        <mxCell id="O03qgihGsbq_CIoBmfs9-22" value="REST API" style="edgeStyle=orthogonalEdgeStyle;rounded=0;orthogonalLoop=1;jettySize=auto;html=1;exitX=0;exitY=0.5;exitDx=0;exitDy=0;entryX=0;entryY=0.75;entryDx=0;entryDy=0;" edge="1" parent="1" source="O03qgihGsbq_CIoBmfs9-18" target="O03qgihGsbq_CIoBmfs9-14">
          <mxGeometry relative="1" as="geometry">
            <Array as="points">
              <mxPoint x="130" y="520" />
              <mxPoint x="130" y="563" />
            </Array>
          </mxGeometry>
        </mxCell>
        <mxCell id="O03qgihGsbq_CIoBmfs9-18" value="&lt;div&gt;proxmox api&lt;/div&gt;&lt;div&gt;gateway&lt;br&gt;&lt;/div&gt;" style="rounded=0;whiteSpace=wrap;html=1;" vertex="1" parent="1">
          <mxGeometry x="230" y="490" width="120" height="60" as="geometry" />
        </mxCell>
        <mxCell id="O03qgihGsbq_CIoBmfs9-19" value="&lt;div&gt;management&lt;/div&gt;&lt;div&gt;database&lt;br&gt;&lt;/div&gt;" style="shape=cylinder3;whiteSpace=wrap;html=1;boundedLbl=1;backgroundOutline=1;size=15;" vertex="1" parent="1">
          <mxGeometry x="710" y="350" width="60" height="80" as="geometry" />
        </mxCell>
        <mxCell id="O03qgihGsbq_CIoBmfs9-24" value="postgreSQL Instance" style="rounded=0;whiteSpace=wrap;html=1;verticalAlign=top;" vertex="1" parent="1">
          <mxGeometry x="485" y="499" width="140" height="120" as="geometry" />
        </mxCell>
        <mxCell id="O03qgihGsbq_CIoBmfs9-25" value="db_1" style="shape=cylinder3;whiteSpace=wrap;html=1;boundedLbl=1;backgroundOutline=1;size=15;" vertex="1" parent="1">
          <mxGeometry x="525" y="524" width="60" height="80" as="geometry" />
        </mxCell>
      </root>
    </mxGraphModel>
  </diagram>
</mxfile>
